<?xml version="1.0" encoding="UTF-8" standalone="no"?>
<svg
   width="400"
   height="400"
   version="1.1"
   id="svg325"
   sodipodi:docname="BlackBytesBoxedLogo.svg"
   inkscape:version="1.2.2 (732a01da63, 2022-12-09)"
   inkscape:export-filename="BlackBytesBoxed_16.png"
   inkscape:export-xdpi="3.8399999"
   inkscape:export-ydpi="3.8399999"
   xmlns:inkscape="http://www.inkscape.org/namespaces/inkscape"
   xmlns:sodipodi="http://sodipodi.sourceforge.net/DTD/sodipodi-0.dtd"
   xmlns="http://www.w3.org/2000/svg"
   xmlns:svg="http://www.w3.org/2000/svg">
  <sodipodi:namedview
     id="namedview327"
     pagecolor="#ffffff"
     bordercolor="#000000"
     borderopacity="0.25"
     inkscape:showpageshadow="2"
     inkscape:pageopacity="0.0"
     inkscape:pagecheckerboard="0"
     inkscape:deskcolor="#d1d1d1"
     showgrid="false"
     inkscape:zoom="0.70710678"
     inkscape:cx="-67.175144"
     inkscape:cy="274.35743"
     inkscape:window-width="1920"
     inkscape:window-height="1017"
     inkscape:window-x="-8"
     inkscape:window-y="-8"
     inkscape:window-maximized="1"
     inkscape:current-layer="svg325" />
  <!-- Background -->
  <!-- Glowing Box -->
  <!-- Bytes Symbol -->
  <rect
     style="fill:#ffffff;fill-opacity:1;stroke-width:20.0784;stroke-linejoin:round;stroke-dasharray:60.2351, 20.0784;stroke-dashoffset:50.1958"
     id="rect3148"
     width="377.53903"
     height="374.54413"
     x="11.230467"
     y="12.727936" />
  <rect
     x="10"
     y="10"
     width="380"
     height="380"
     fill="none"
     stroke="#000000"
     stroke-width="6"
     stroke-dasharray="10,5"
     filter="url(#glow)"
     id="rect308"
     style="mix-blend-mode:normal;stroke-width:17.8743;stroke-linecap:butt;stroke-linejoin:round;stroke-dasharray:53.6229, 8.93715;stroke-dashoffset:84.0093;filter:url(#glow)"
     transform="matrix(0.95595994,0,0,0.95603362,8.8242903,8.7934012)" />
  <path
     d="m 349.04094,275.12019 q 0,12.49849 -2.37815,22.3576 -2.37812,9.85904 -6.99849,16.69053 -4.55243,6.75385 -11.14327,10.32483 -6.5908,3.57103 -15.08414,3.57103 -7.33823,0 -13.52137,-2.94997 -6.18315,-2.94996 -10.66762,-9.23803 -4.48448,-6.36569 -6.99851,-16.22476 -2.51402,-9.85906 -2.51402,-23.59966 0,-12.49852 2.37811,-22.3576 2.44609,-9.85904 6.99851,-16.6129 4.55243,-6.83149 11.21121,-10.40247 6.65876,-3.57102 15.08415,-3.57102 7.33823,0 13.52137,2.94997 6.18315,2.94994 10.59968,9.23802 4.48448,6.28808 6.99852,16.14715 2.51402,9.85907 2.51402,23.67728 z m -52.5907,0.31053 q 0,1.5526 0,2.94997 0,1.3197 0.13581,2.71705 l 33.29385,-27.4812 q -2.37812,-7.68541 -6.31903,-11.33404 -3.87295,-3.72626 -9.1728,-3.72626 -3.80501,0 -7.06644,2.25127 -3.26142,2.17368 -5.70752,6.75387 -2.37813,4.58018 -3.80501,11.4893 -1.35893,6.90913 -1.35893,16.38004 z m 35.87581,0.3105 q 0,-1.31971 -0.068,-2.63943 -0.068,-1.39735 -0.068,-2.63943 l -33.08986,27.32592 q 2.17427,7.53017 6.1152,11.1788 3.94091,3.64863 9.17279,3.64863 3.80503,0 7.06646,-2.25129 3.32939,-2.25128 5.70752,-6.75385 2.44606,-4.58019 3.80502,-11.48931 1.35892,-6.98675 1.35892,-16.38004 z"
     id="path2932"
     style="font-weight:bold;font-size:100px;font-family:Consolas;-inkscape-font-specification:'Consolas, Bold';text-anchor:middle;stroke-width:1.4874" />
  <path
     d="m 209.95416,326.27868 v -16.84581 h 22.62625 v -65.20961 l -19.70455,12.42088 -5.43572,-15.44848 28.19786,-17.00104 h 13.92905 v 85.23825 h 19.50069 v 16.84581 z"
     id="path2930"
     style="font-weight:bold;font-size:100px;font-family:Consolas;-inkscape-font-specification:'Consolas, Bold';text-anchor:middle;stroke-width:1.4874" />
  <path
     d="m 196.0251,275.12019 q 0,12.49849 -2.37814,22.3576 -2.37812,9.85904 -6.9985,16.69053 -4.55242,6.75385 -11.14322,10.32483 -6.59084,3.57103 -15.08417,3.57103 -7.33825,0 -13.52139,-2.94997 -6.18313,-2.94996 -10.66761,-9.23803 -4.48449,-6.36569 -6.99852,-16.22476 -2.51402,-9.85906 -2.51402,-23.59966 0,-12.49852 2.37814,-22.3576 2.44608,-9.85904 6.99848,-16.6129 4.55245,-6.83149 11.21122,-10.40247 6.65876,-3.57102 15.08416,-3.57102 7.33822,0 13.52137,2.94997 6.18314,2.94994 10.59967,9.23802 4.48449,6.28808 6.99851,16.14715 2.51402,9.85907 2.51402,23.67728 z m -52.59068,0.31053 q 0,1.5526 0,2.94997 0,1.3197 0.13593,2.71705 l 33.29386,-27.4812 q -2.37813,-7.68541 -6.31905,-11.33404 -3.87294,-3.72626 -9.17278,-3.72626 -3.80503,0 -7.06644,2.25127 -3.26145,2.17368 -5.70754,6.75387 -2.37813,4.58018 -3.805,11.4893 -1.35895,6.90913 -1.35895,16.38004 z m 35.87581,0.3105 q 0,-1.31971 -0.068,-2.63943 -0.068,-1.39735 -0.068,-2.63943 l -33.08985,27.32592 q 2.17429,7.53017 6.1152,11.1788 3.94091,3.64863 9.17281,3.64863 3.805,0 7.06643,-2.25129 3.32939,-2.25128 5.70751,-6.75385 2.4461,-4.58019 3.80502,-11.48931 1.35893,-6.98675 1.35893,-16.38004 z"
     id="path2928"
     style="font-weight:bold;font-size:100px;font-family:Consolas;-inkscape-font-specification:'Consolas, Bold';text-anchor:middle;stroke-width:1.4874" />
  <path
     d="m 56.938339,326.27868 v -16.84581 h 22.626225 v -65.20961 l -19.70452,12.42088 -5.43573,-15.44848 28.197856,-17.00104 h 13.929056 v 85.23825 h 19.500694 v 16.84581 z"
     id="path2926"
     inkscape:label="path2926"
     style="font-weight:bold;font-size:100px;font-family:Consolas;-inkscape-font-specification:'Consolas, Bold';text-anchor:middle;stroke-width:1.4874" />
  <path
     d="m 286.08838,171.49404 v -16.84581 h 22.62624 V 89.438636 L 289.01008,101.85951 283.57435,86.411053 311.7722,69.409977 h 13.92908 v 85.238253 h 19.50067 v 16.84581 z"
     id="path2923"
     style="font-weight:bold;font-size:100px;font-family:Consolas;-inkscape-font-specification:'Consolas, Bold';text-anchor:middle;stroke-width:1.4874" />
  <path
     d="m 272.15933,120.33558 q 0,12.49847 -2.37814,22.35754 -2.37811,9.85908 -6.99851,16.69056 -4.55241,6.75386 -11.14324,10.32484 -6.59081,3.57103 -15.08415,3.57103 -7.33824,0 -13.52137,-2.94996 -6.18315,-2.94997 -10.66763,-9.23804 -4.48448,-6.36571 -6.99852,-16.22475 -2.514,-9.85907 -2.514,-23.59967 0,-12.4985 2.37812,-22.357582 2.44608,-9.859066 6.99851,-16.612914 4.55242,-6.831483 11.21119,-10.402483 6.65876,-3.571 15.08417,-3.571 7.33822,0 13.52136,2.949958 6.18315,2.949957 10.59968,9.238027 4.48448,6.288072 6.99851,16.147139 2.51402,9.859065 2.51402,23.677305 z m -52.59069,0.3105 q 0,1.55261 0,2.94996 0,1.31971 0.13594,2.71708 l 33.29384,-27.481192 q -2.37812,-7.685428 -6.31903,-11.334056 -3.87295,-3.726263 -9.1728,-3.726263 -3.80499,0 -7.06643,2.251273 -3.26145,2.173668 -5.70752,6.753862 -2.37814,4.580196 -3.80503,11.489316 -1.35891,6.90911 -1.35891,16.38002 z m 35.87581,0.31052 q 0,-1.31972 -0.068,-2.63944 -0.068,-1.39734 -0.068,-2.63942 l -33.09,27.32592 q 2.17427,7.53017 6.11518,11.1788 3.94091,3.64861 9.17279,3.64861 3.80503,0 7.06645,-2.25127 3.32939,-2.25128 5.70753,-6.75386 2.44606,-4.58019 3.80501,-11.48932 1.35893,-6.98673 1.35893,-16.38002 z"
     id="path2921"
     style="font-weight:bold;font-size:100px;font-family:Consolas;-inkscape-font-specification:'Consolas, Bold';text-anchor:middle;stroke-width:1.4874" />
  <path
     d="m 133.07258,171.49404 v -16.84581 h 22.6262 V 89.438636 L 135.99427,101.85951 130.55855,86.411053 158.7564,69.409977 h 13.92905 v 85.238253 h 19.50067 v 16.84581 z"
     id="path2919"
     style="font-weight:bold;font-size:100px;font-family:Consolas;-inkscape-font-specification:'Consolas, Bold';text-anchor:middle;stroke-width:1.4874" />
  <path
     d="m 119.1435,120.33558 q 0,12.49847 -2.37813,22.35754 -2.37813,9.85908 -6.99849,16.69056 -4.55244,6.75386 -11.143243,10.32484 -6.590837,3.57103 -15.084171,3.57103 -7.338226,0 -13.521371,-2.94996 -6.183146,-2.94997 -10.667627,-9.23804 -4.48448,-6.36571 -6.998503,-16.22475 -2.514028,-9.85907 -2.514028,-23.59967 0,-12.4985 2.378133,-22.357582 2.446079,-9.859066 6.998502,-16.612914 4.552428,-6.831483 11.211204,-10.402483 6.658761,-3.571 15.084152,-3.571 7.338235,0 13.521379,2.949958 6.183133,2.949957 10.599663,9.238027 4.48448,6.288072 6.99851,16.147139 2.51402,9.859065 2.51402,23.677305 z m -52.590692,0.3105 q 0,1.55261 0,2.94996 0,1.31971 0.135953,2.71708 L 99.982605,98.831928 Q 97.604493,91.1465 93.663571,87.497872 q -3.872963,-3.726263 -9.172788,-3.726263 -3.805019,0 -7.066458,2.251273 -3.261438,2.173668 -5.707515,6.753862 -2.378125,4.580196 -3.805018,11.489316 -1.358929,6.90911 -1.358929,16.38002 z m 35.875812,0.31052 q 0,-1.31972 -0.068,-2.63944 -0.068,-1.39734 -0.068,-2.63942 l -33.089976,27.32592 q 2.174294,7.53017 6.115197,11.1788 3.940903,3.64861 9.1728,3.64861 3.805005,0 7.066447,-2.25127 3.329388,-2.25128 5.70752,-6.75386 2.446077,-4.58019 3.805002,-11.48932 1.35893,-6.98673 1.35893,-16.38002 z"
     id="path2917"
     style="font-weight:bold;font-size:100px;font-family:Consolas;-inkscape-font-specification:'Consolas, Bold';text-anchor:middle;stroke-width:1.4874" />
  <!-- Glow Filter -->
  <defs
     id="defs323">
    <filter
       id="glow"
       x="-0.050518816"
       y="-0.050518816"
       width="1.1010376"
       height="1.1010376">
      <feGaussianBlur
         stdDeviation="4.2750001"
         result="blur"
         id="feGaussianBlur314" />
      <feMerge
         id="feMerge320">
        <feMergeNode
           in="blur"
           id="feMergeNode316" />
        <feMergeNode
           in="SourceGraphic"
           id="feMergeNode318" />
      </feMerge>
    </filter>
  </defs>
</svg>
